<svg width="22" height="22" viewBox="0 0 22 22" fill="none" xmlns="http://www.w3.org/2000/svg">
<path fill-rule="evenodd" clip-rule="evenodd" d="M5.3199 14.2267C6.57323 15.48 8.22657 16.12 9.8799 16.12C11.234 16.12 12.6066 15.695 13.7361 14.8296L17.5066 18.6C17.6666 18.7867 17.9066 18.8667 18.1199 18.8667C18.3332 18.8667 18.5732 18.76 18.7332 18.6C19.0799 18.2534 19.0799 17.72 18.7332 17.3734L14.961 13.6011C16.8715 11.1036 16.6575 7.48425 14.3599 5.18669C11.8532 2.68002 7.77323 2.68002 5.29323 5.16002C2.78657 7.64003 2.81323 11.72 5.3199 14.2267ZM13.1618 13.0247C14.9732 11.2112 14.9726 8.2527 13.1332 6.41336C12.1999 5.50669 10.9999 5.02669 9.7999 5.02669C8.5999 5.02669 7.42657 5.48002 6.5199 6.38669C4.70657 8.20003 4.70657 11.16 6.54657 13C8.38657 14.84 11.3466 14.84 13.1599 13.0267C13.1605 13.026 13.1612 13.0254 13.1618 13.0247Z" fill="#79888E"/>
</svg>
