<svg width="14" height="15" viewBox="0 0 14 15" fill="none" xmlns="http://www.w3.org/2000/svg">
<path d="M12.12 4.02672V13.92C12.12 14.48 11.6666 14.9334 11.1066 14.9334H2.91997C2.35997 14.9334 1.90664 14.48 1.90664 13.92V4.02672H1.47997C1.1333 4.02672 0.866638 3.76005 0.866638 3.41338C0.866638 3.06672 1.1333 2.80005 1.47997 2.80005H3.93331V1.81338C3.93331 1.25338 4.38664 0.800049 4.94664 0.800049H9.02664C9.58664 0.800049 10.04 1.25338 10.04 1.81338V2.82672H12.4933C12.84 2.82672 13.1066 3.09338 13.1066 3.44005C13.1066 3.78672 12.84 4.05338 12.4933 4.05338H12.12V4.02672ZM3.10664 4.02672V13.7067H10.8666V4.02672H3.10664ZM8.62664 5.33338C8.9733 5.33338 9.23997 5.60005 9.23997 5.94671V11.8134C9.23997 12.16 8.9733 12.4267 8.62664 12.4267C8.27997 12.4267 8.01331 12.16 8.01331 11.8134V5.94671C8.01331 5.62672 8.30664 5.33338 8.62664 5.33338ZM5.55997 5.33338C5.90664 5.33338 6.17331 5.60005 6.17331 5.94671V11.8134C6.17331 12.16 5.90664 12.4267 5.55997 12.4267C5.2133 12.4267 4.94664 12.16 4.94664 11.8134V5.94671C4.94664 5.62672 5.23997 5.33338 5.55997 5.33338ZM5.15997 2.82672H8.83997V2.02672H5.15997V2.82672Z" fill="#12344D"/>
</svg>
