<svg width="14" height="14" viewBox="0 0 14 14" fill="none" xmlns="http://www.w3.org/2000/svg">
<path d="M8.11009 6.99997L13.0601 2.04997C13.3601 1.74997 13.3601 1.23997 13.0601 0.939966C12.7601 0.639966 12.2501 0.639966 11.9501 0.939966L7.00009 5.88997L2.05009 0.939966C1.75009 0.639966 1.24009 0.639966 0.940088 0.939966C0.640088 1.23997 0.640088 1.74997 0.940088 2.04997L5.89009 6.99997L0.940088 11.95C0.640088 12.25 0.640088 12.76 0.940088 13.06C1.24009 13.36 1.75009 13.36 2.05009 13.06L7.00009 8.10997L11.9501 13.06C12.2501 13.36 12.7601 13.36 13.0601 13.06C13.3601 12.76 13.3601 12.25 13.0601 11.95L8.11009 6.99997Z" fill="white"/>
</svg>
