<svg width="14" height="16" viewBox="0 0 14 16" fill="none" xmlns="http://www.w3.org/2000/svg">
<path d="M9.18668 1.78668L8.33335 2.64002L7.82668 2.13335H1.42668V13.8667H11.16V7.70668L12.3867 6.48002V14.0534C12.3867 14.6134 11.9333 15.0667 11.3733 15.0667H1.21335C0.653346 15.0667 0.200012 14.6134 0.200012 14.0534V1.94668C0.200012 1.38668 0.653346 0.93335 1.21335 0.93335H8.30668L9.18668 1.78668ZM13.2667 1.65335C13.96 2.34668 13.96 3.46668 13.2667 4.16002L7.53335 9.89335C7.50668 9.92002 7.45335 9.94668 7.40001 9.94668L5.29335 10.16C5.02668 10.1867 4.76001 9.97335 4.73335 9.70668C4.73335 9.68002 4.73335 9.62668 4.73335 9.60002L4.94668 7.49335C4.94668 7.44002 4.97335 7.41335 5.00001 7.36002L10.76 1.65335C11.4533 0.960016 12.5733 0.960016 13.2667 1.65335ZM6.04001 8.88002L6.92001 8.80002L12.4133 3.30668C12.6267 3.09335 12.6267 2.74668 12.4133 2.50668C12.2 2.29335 11.8533 2.29335 11.6133 2.50668L6.12001 8.00002L6.04001 8.88002Z" fill="#12344D"/>
</svg>
