<svg width="97" height="96" viewBox="0 0 97 96" fill="none" xmlns="http://www.w3.org/2000/svg">
<path fill-rule="evenodd" clip-rule="evenodd" d="M51.84 38.4C51.84 24.96 41.12 14.08 27.68 14.08C14.24 14.08 3.36 24.96 3.36 38.24C3.36 43.84 5.28 49.44 8.96 53.76C3.2 59.04 0 66.4 0 74.08V84.32C0 86.4 1.76 88.16 3.84 88.16C5.92 88.16 7.68 86.4 7.68 84.32V74.08C7.68 68.16 10.24 62.56 14.72 58.88C22.56 63.84 32.64 63.84 40.48 58.88C44.96 62.72 47.52 68.32 47.52 74.08V84.32C47.52 86.4 49.28 88.16 51.36 88.16C53.44 88.16 55.2 86.4 55.2 84.32V74.08C55.2 66.4 52 59.04 46.24 53.76C49.92 49.44 51.84 44 51.84 38.4ZM27.6799 55.0399C18.5599 55.0399 11.0399 47.68 11.0399 38.3999C11.0399 29.2799 18.3999 21.7599 27.6799 21.7599C36.7999 21.7599 44.3199 29.1199 44.3199 38.24C44.1599 47.52 36.7999 55.0399 27.6799 55.0399ZM89.6001 57.44C95.3601 48.64 92.9601 36.64 84.1601 30.88C75.3601 25.12 63.3601 27.52 57.6001 36.32C51.8401 45.12 54.2401 57.12 63.0401 62.88C69.4401 67.04 77.7601 67.04 84.3201 62.88C87.0401 65.44 88.4801 68.96 88.4801 72.64V80.8C88.4801 82.88 90.2401 84.64 92.3201 84.64C94.4001 84.64 96.1601 82.88 96.1601 80.8V72.64C96.0001 67.04 93.7601 61.44 89.6001 57.44ZM73.6 58.4C67.36 58.56 62.08 53.44 62.08 47.2C61.92 40.96 67.04 35.68 73.28 35.68C79.52 35.68 84.8 40.64 84.8 46.88V47.04C84.8 53.28 79.68 58.24 73.6 58.4Z" fill="#CFD7DF"/>
<mask id="mask0_595_1018" style="mask-type:alpha" maskUnits="userSpaceOnUse" x="0" y="14" width="97" height="75">
<path fill-rule="evenodd" clip-rule="evenodd" d="M51.84 38.4C51.84 24.96 41.12 14.08 27.68 14.08C14.24 14.08 3.36 24.96 3.36 38.24C3.36 43.84 5.28 49.44 8.96 53.76C3.2 59.04 0 66.4 0 74.08V84.32C0 86.4 1.76 88.16 3.84 88.16C5.92 88.16 7.68 86.4 7.68 84.32V74.08C7.68 68.16 10.24 62.56 14.72 58.88C22.56 63.84 32.64 63.84 40.48 58.88C44.96 62.72 47.52 68.32 47.52 74.08V84.32C47.52 86.4 49.28 88.16 51.36 88.16C53.44 88.16 55.2 86.4 55.2 84.32V74.08C55.2 66.4 52 59.04 46.24 53.76C49.92 49.44 51.84 44 51.84 38.4ZM27.6799 55.0399C18.5599 55.0399 11.0399 47.68 11.0399 38.3999C11.0399 29.2799 18.3999 21.7599 27.6799 21.7599C36.7999 21.7599 44.3199 29.1199 44.3199 38.24C44.1599 47.52 36.7999 55.0399 27.6799 55.0399ZM89.6001 57.44C95.3601 48.64 92.9601 36.64 84.1601 30.88C75.3601 25.12 63.3601 27.52 57.6001 36.32C51.8401 45.12 54.2401 57.12 63.0401 62.88C69.4401 67.04 77.7601 67.04 84.3201 62.88C87.0401 65.44 88.4801 68.96 88.4801 72.64V80.8C88.4801 82.88 90.2401 84.64 92.3201 84.64C94.4001 84.64 96.1601 82.88 96.1601 80.8V72.64C96.0001 67.04 93.7601 61.44 89.6001 57.44ZM73.6 58.4C67.36 58.56 62.08 53.44 62.08 47.2C61.92 40.96 67.04 35.68 73.28 35.68C79.52 35.68 84.8 40.64 84.8 46.88V47.04C84.8 53.28 79.68 58.24 73.6 58.4Z" fill="white"/>
</mask>
<g mask="url(#mask0_595_1018)">
</g>
</svg>
