<svg width="25" height="25" viewBox="0 0 25 25" fill="none" xmlns="http://www.w3.org/2000/svg">
<path opacity="0.5" d="M21.8284 0H12.4534C5.59702 0 0 5.59701 0 12.5C0 19.403 5.59701 25 12.5 25C19.403 25 25 19.403 25 12.5V3.125C24.9534 1.39925 23.5541 0 21.8284 0ZM12.4534 6.25C13.806 6.25 14.9254 7.3694 14.9254 8.72202C14.9254 10.0746 13.806 11.194 12.4534 11.194C11.1007 11.194 9.98134 10.0746 9.98134 8.72202C9.98134 7.3694 11.1007 6.25 12.4534 6.25ZM12.4534 18.7034C10.1679 18.7034 8.11567 17.444 7.04291 15.5784C8.11567 13.7127 10.1213 12.4534 12.4534 12.4534C14.7388 12.4534 16.791 13.7127 17.8638 15.5784C16.8377 17.444 14.7854 18.7034 12.4534 18.7034Z" fill="#41637C"/>
</svg>
