<svg width="23" height="22" viewBox="0 0 23 22" fill="none" xmlns="http://www.w3.org/2000/svg">
<path fill-rule="evenodd" clip-rule="evenodd" d="M11.88 8.80002C11.88 5.72002 9.42333 3.22668 6.34333 3.22668C3.26333 3.22668 0.77 5.72002 0.77 8.76335C0.77 10.0467 1.21 11.33 2.05333 12.32C0.733333 13.53 0 15.2167 0 16.9767V19.3234C0 19.8 0.403333 20.2034 0.88 20.2034C1.35667 20.2034 1.76 19.8 1.76 19.3234V16.9767C1.76 15.62 2.34667 14.3367 3.37333 13.4934C5.17 14.63 7.48 14.63 9.27667 13.4934C10.3033 14.3734 10.89 15.6567 10.89 16.9767V19.3234C10.89 19.8 11.2933 20.2034 11.77 20.2034C12.2467 20.2034 12.65 19.8 12.65 19.3234V16.9767C12.65 15.2167 11.9167 13.53 10.5967 12.32C11.44 11.33 11.88 10.0834 11.88 8.80002ZM6.34332 12.6133C4.25332 12.6133 2.52999 10.9267 2.52999 8.80002C2.52999 6.71002 4.21665 4.98668 6.34332 4.98668C8.43332 4.98668 10.1567 6.67335 10.1567 8.76335C10.12 10.89 8.43332 12.6133 6.34332 12.6133ZM20.5334 13.1634C21.8534 11.1467 21.3034 8.39669 19.2867 7.07668C17.27 5.75669 14.52 6.30668 13.2 8.32335C11.88 10.34 12.43 13.09 14.4467 14.41C15.9134 15.3634 17.82 15.3634 19.3234 14.41C19.9467 14.9967 20.2767 15.8034 20.2767 16.6467V18.5167C20.2767 18.9934 20.68 19.3967 21.1567 19.3967C21.6334 19.3967 22.0367 18.9934 22.0367 18.5167V16.6467C22 15.3634 21.4867 14.08 20.5334 13.1634ZM16.8667 13.3834C15.4367 13.42 14.2267 12.2467 14.2267 10.8167C14.19 9.38668 15.3633 8.17668 16.7933 8.17668C18.2233 8.17668 19.4333 9.31335 19.4333 10.7434V10.78C19.4333 12.21 18.26 13.3467 16.8667 13.3834Z" fill="white"/>
<mask id="mask0_1_3522" style="mask-type:alpha" maskUnits="userSpaceOnUse" x="0" y="3" width="23" height="18">
<path fill-rule="evenodd" clip-rule="evenodd" d="M11.88 8.80002C11.88 5.72002 9.42333 3.22668 6.34333 3.22668C3.26333 3.22668 0.77 5.72002 0.77 8.76335C0.77 10.0467 1.21 11.33 2.05333 12.32C0.733333 13.53 0 15.2167 0 16.9767V19.3234C0 19.8 0.403333 20.2034 0.88 20.2034C1.35667 20.2034 1.76 19.8 1.76 19.3234V16.9767C1.76 15.62 2.34667 14.3367 3.37333 13.4934C5.17 14.63 7.48 14.63 9.27667 13.4934C10.3033 14.3734 10.89 15.6567 10.89 16.9767V19.3234C10.89 19.8 11.2933 20.2034 11.77 20.2034C12.2467 20.2034 12.65 19.8 12.65 19.3234V16.9767C12.65 15.2167 11.9167 13.53 10.5967 12.32C11.44 11.33 11.88 10.0834 11.88 8.80002ZM6.34332 12.6133C4.25332 12.6133 2.52999 10.9267 2.52999 8.80002C2.52999 6.71002 4.21665 4.98668 6.34332 4.98668C8.43332 4.98668 10.1567 6.67335 10.1567 8.76335C10.12 10.89 8.43332 12.6133 6.34332 12.6133ZM20.5334 13.1634C21.8534 11.1467 21.3034 8.39669 19.2867 7.07668C17.27 5.75669 14.52 6.30668 13.2 8.32335C11.88 10.34 12.43 13.09 14.4467 14.41C15.9134 15.3634 17.82 15.3634 19.3234 14.41C19.9467 14.9967 20.2767 15.8034 20.2767 16.6467V18.5167C20.2767 18.9934 20.68 19.3967 21.1567 19.3967C21.6334 19.3967 22.0367 18.9934 22.0367 18.5167V16.6467C22 15.3634 21.4867 14.08 20.5334 13.1634ZM16.8667 13.3834C15.4367 13.42 14.2267 12.2467 14.2267 10.8167C14.19 9.38668 15.3633 8.17668 16.7933 8.17668C18.2233 8.17668 19.4333 9.31335 19.4333 10.7434V10.78C19.4333 12.21 18.26 13.3467 16.8667 13.3834Z" fill="white"/>
</mask>
<g mask="url(#mask0_1_3522)">
</g>
</svg>
