<svg width="30" height="30" viewBox="0 0 30 30" fill="none" xmlns="http://www.w3.org/2000/svg">
<path d="M15 2.63672C21.8203 2.63672 27.3633 8.17969 27.3633 15C27.3633 21.8203 21.8203 27.3633 15 27.3633C8.17969 27.3633 2.63672 21.8203 2.63672 15C2.63672 8.17969 8.17969 2.63672 15 2.63672ZM15 0C6.71484 0 0 6.71484 0 15C0 23.2852 6.71484 30 15 30C23.2852 30 30 23.2852 30 15C30 6.71484 23.2852 0 15 0ZM16.1719 20.6016C16.5 20.918 16.6641 21.3164 16.6641 21.7734C16.6641 22.2891 16.5 22.6992 16.1719 22.9922C15.8438 23.2852 15.457 23.4375 15.0117 23.4375C14.5664 23.4375 14.168 23.2969 13.8398 23.0039C13.5 22.7109 13.3359 22.3008 13.3359 21.7852C13.3359 21.3281 13.5 20.9414 13.8164 20.6133C14.1328 20.2969 14.5312 20.1328 14.9883 20.1328C15.457 20.1211 15.8438 20.2852 16.1719 20.6016ZM16.3477 7.34766C16.5586 7.78125 16.6641 8.41406 16.6641 9.24609C16.6641 9.73828 16.6406 10.2305 16.582 10.7227L16.1016 16.1719C16.0547 16.8164 15.9375 17.3203 15.7734 17.6602C15.6094 18.0117 15.3281 18.1758 14.9297 18.1758C14.5312 18.1758 14.25 18.0117 14.0977 17.6719C13.9453 17.332 13.8281 16.8281 13.7695 16.1367L13.418 10.8398C13.3477 9.80859 13.3242 9.07031 13.3242 8.61328C13.3242 8.00391 13.4883 7.52344 13.8047 7.18359C14.1211 6.84375 14.543 6.66797 15.0703 6.66797C15.7148 6.69141 16.1367 6.90234 16.3477 7.34766Z" fill="#E86F25"/>
</svg>
