<svg width="4" height="12" viewBox="0 0 4 12" fill="none" xmlns="http://www.w3.org/2000/svg">
<path fill-rule="evenodd" clip-rule="evenodd" d="M2.00513 2.66667C2.65894 2.66667 3.18897 2.06971 3.18897 1.33333C3.18897 0.596954 2.65894 0 2.00513 0C1.35131 0 0.821289 0.596954 0.821289 1.33333C0.821289 2.06971 1.35131 2.66667 2.00513 2.66667ZM2.00513 7.33333C2.65894 7.33333 3.18897 6.73638 3.18897 6C3.18897 5.26362 2.65894 4.66667 2.00513 4.66667C1.35131 4.66667 0.821289 5.26362 0.821289 6C0.821289 6.73638 1.35131 7.33333 2.00513 7.33333ZM3.18897 10.6667C3.18897 11.403 2.65894 12 2.00513 12C1.35131 12 0.821289 11.403 0.821289 10.6667C0.821289 9.93029 1.35131 9.33333 2.00513 9.33333C2.65894 9.33333 3.18897 9.93029 3.18897 10.6667Z" fill="#183247"/>
</svg>
